<svg width="41" height="46" viewBox="0 0 41 46" fill="none" xmlns="http://www.w3.org/2000/svg">
<path fill-rule="evenodd" clip-rule="evenodd" d="M27.376 11.8511L22.1304 14.8797L31.9135 20.5258C32.4554 20.4617 33.008 20.4191 33.5779 20.375C35.6949 20.2126 38.077 20.0286 39.3968 18.7911L27.376 11.8511ZM20.3408 13.8468L27.3741 9.78599L27.8195 10.0432L40.3241 17.2625C41.0403 14.8096 40.7457 11.4502 38.2885 10.0316L27.3761 3.72966L15.0967 10.8192L20.3408 13.8468ZM38.2884 26.2739L11.5179 10.817L25.5848 2.69548L22.5962 0.971915C21.8783 0.55748 21.109 0.350098 20.3409 0.350098C19.5729 0.350098 18.8034 0.55748 18.0858 0.971915L2.38986 10.0316C2.03318 10.2376 1.7116 10.4828 1.42989 10.7608L1.25204 10.9468L40.3245 33.5049L40.3967 33.2575C40.4935 32.8859 40.5435 32.4847 40.5435 32.0598V30.1828C40.5435 29.3476 40.34 28.5769 39.9591 27.9137C39.5779 27.2534 39.012 26.6917 38.2884 26.2739ZM18.5532 31.121L8.77105 25.4735C8.22803 25.5376 7.67464 25.5805 7.10372 25.6245C4.98763 25.7874 2.60629 25.9709 1.28615 27.2074L13.3075 34.1496L18.5532 31.121ZM13.3077 36.2134L0.357133 28.7389L0.285318 28.9845C0.188548 29.3563 0.13842 29.7576 0.13842 30.1825V32.0592C0.13842 32.8959 0.341441 33.6663 0.721222 34.3257C1.10591 34.9881 1.67182 35.5514 2.39335 35.968L13.3055 42.27L25.5851 35.1804L20.341 32.1531L13.3077 36.2134ZM39.4299 35.0528L0.350595 12.4904C-0.0370325 13.5893 -0.099474 14.8986 0.144632 16.1355C0.445187 17.6591 1.20867 19.0415 2.39335 19.7257L29.1638 35.1824L15.0967 43.3041L18.0858 45.0277C18.8036 45.4422 19.5733 45.6498 20.341 45.6498C21.111 45.6498 21.8816 45.4424 22.5997 45.0277L38.2921 35.968C38.6485 35.7624 38.97 35.5165 39.252 35.2388L39.4299 35.0528Z" fill="#FFE600"/>
</svg>
